<svg xmlns="http://www.w3.org/2000/svg" width="64" height="64" fill="none"><rect id="backgroundrect" width="100%" height="100%" x="0" y="0" fill="none" stroke="none"/>







<g class="currentLayer" style=""><title>Layer 1</title><rect x="12" y="9" width="40" height="54" rx="4" stroke="#322153" stroke-width="2" id="svg_1"/><path d="M22 5C22 2.23858 24.2386 0 27 0H37C39.7614 0 42 2.23858 42 5V10H22V5Z" fill="#34CB79" id="svg_2"/><path d="M23 5C23 2.79086 24.7909 1 27 1H37C39.2091 1 41 2.79086 41 5V9H23V5Z" stroke="#322153" stroke-width="2" id="svg_3" class="" fill="#771976" fill-opacity="1"/><path d="M23 38.8261L32 22V32.1739H41L32 49V38.8261H23Z" fill="#34CB79" id="svg_4"/><path d="M23 38.8261L32 22V32.1739H41L32 49V38.8261H23Z" stroke="#322153" stroke-width="2" stroke-linejoin="round" id="svg_5" class="" fill="#771976" fill-opacity="1"/><line x1="12" y1="14" x2="53" y2="14" stroke="#322153" stroke-width="2" id="svg_6"/><line x1="12" y1="58" x2="53" y2="58" stroke="#322153" stroke-width="2" id="svg_7"/></g></svg>